<svg width="599" height="284" viewBox="0 0 599 284" fill="none" xmlns="http://www.w3.org/2000/svg">
<g clip-path="url(#clip0_54_621)">
<path d="M62.7834 93.2231L112.387 51.2662L202.302 40.1616L343.681 42.0124L397.628 93.8338L391.424 111.111L206.023 111.731L60.9232 120.985L62.7834 93.2231Z" fill="#767F89"/>
<path d="M112.545 86.4308C111.392 86.4308 110.238 85.9588 109.411 85.0334C107.876 83.3122 108.034 80.6841 109.755 79.1573L153.089 40.8372C154.819 39.3103 157.461 39.4676 158.995 41.1795C160.53 42.9008 160.372 45.5288 158.651 47.0557L115.317 85.3758C114.517 86.0791 113.531 86.4308 112.536 86.4308H112.545Z" fill="#A8AEB4"/>
<path d="M94.5006 145.276C93.3473 145.276 92.1939 144.804 91.3754 143.879C89.8407 142.157 89.9988 139.529 91.7196 138.002L167.06 71.3748C168.79 69.8479 171.431 70.0052 172.966 71.7172C174.501 73.4384 174.343 76.0665 172.622 77.5934L97.2817 144.221C96.4818 144.924 95.4959 145.276 94.5006 145.276Z" fill="#A8AEB4"/>
<path d="M194.024 136.947C192.871 136.947 191.717 136.475 190.889 135.55C189.355 133.829 189.513 131.201 191.234 129.674L266.574 63.0463C268.304 61.5194 270.945 61.6768 272.48 63.3887C274.015 65.1099 273.856 67.738 272.136 69.2649L196.796 135.892C195.996 136.596 195.01 136.947 194.015 136.947H194.024Z" fill="#A8AEB4"/>
<path d="M268.434 146.201C267.28 146.201 266.127 145.729 265.299 144.804C263.765 143.083 263.923 140.455 265.643 138.928L340.984 72.3002C342.714 70.7733 345.355 70.9306 346.89 72.6426C348.425 74.3638 348.266 76.9919 346.546 78.5187L271.206 145.146C270.406 145.85 269.42 146.201 268.425 146.201H268.434Z" fill="#A8AEB4"/>
<path d="M290.757 88.8275C289.603 88.8275 288.459 88.3556 287.632 87.4302C286.097 85.709 286.246 83.0809 287.976 81.554L334.938 39.9118C336.668 38.3849 339.309 38.5329 340.844 40.2542C342.379 41.9754 342.23 44.6035 340.5 46.1303L293.538 87.7726C292.738 88.4758 291.743 88.8275 290.757 88.8275Z" fill="#A8AEB4"/>
<path d="M142.467 229.56C142.467 257.33 119.837 279.836 91.9335 279.836C64.0298 279.836 41.3998 257.321 41.3998 229.56C41.3998 201.798 64.0298 179.284 91.9335 179.284C119.837 179.284 142.467 201.798 142.467 229.56Z" fill="#58646F"/>
<path d="M527.539 228.634C527.539 256.572 504.778 279.225 476.689 279.225C448.599 279.225 425.839 256.581 425.839 228.634C425.839 200.688 448.608 178.044 476.689 178.044C504.769 178.044 527.539 200.688 527.539 228.634Z" fill="#58646F"/>
<path d="M116.424 228.024C116.424 240.97 105.876 251.464 92.8636 251.464C79.8512 251.464 69.3036 240.97 69.3036 228.024C69.3036 215.077 79.8512 204.584 92.8636 204.584C105.876 204.584 116.424 215.077 116.424 228.024Z" fill="#C9CCD0"/>
<path d="M499.635 228.024C499.635 240.97 489.087 251.464 476.075 251.464C463.062 251.464 452.515 240.97 452.515 228.024C452.515 215.077 463.062 204.584 476.075 204.584C489.087 204.584 499.635 215.077 499.635 228.024Z" fill="#C9CCD0"/>
<path d="M565.516 137.79C565.516 130.127 559.265 123.909 551.564 123.909L433.922 99.8488C433.922 99.8488 367.446 50.7017 361.967 46.2506C356.489 41.7995 342.128 31.8332 329.106 31.8332H161.842C82.316 31.8332 46.4969 85.9681 25.2715 125.426C4.80876 163.469 4.65063 191.971 4.65063 221.426C4.65063 228.366 10.9011 235.417 18.6025 235.417H23.9135C23.9786 232.641 24.0251 231.013 24.0251 228.866C24.0251 191.388 54.5611 160.887 92.2311 160.887C129.901 160.887 160.437 191.443 160.437 228.921C160.437 231.04 160.484 232.641 160.549 235.417H407.208C407.283 232.641 407.329 230.605 407.329 228.246C407.329 190.425 441.325 159.656 476.372 159.656C511.419 159.656 545.416 190.49 545.416 228.31C545.416 230.642 545.462 232.651 545.527 235.427H568.297C575.998 235.427 582.248 228.977 582.248 221.315L565.506 137.799L565.516 137.79ZM186.509 89.4568C185.327 96.4342 182.304 100.312 172.306 100.312H82.316C72.3172 100.312 73.2752 94.1392 75.5726 89.4383C84.0925 71.9855 118.898 49.5357 191.141 49.5357C190.443 56.7075 187.699 82.4886 186.509 89.466V89.4568ZM366.469 102.162H239.042C231.341 102.162 225.09 95.7124 225.09 88.0502L226.95 64.1013C226.95 56.4391 233.201 50.3316 240.902 50.3316H320.735C336.854 50.3316 342.128 54.3848 350.192 59.937C358.256 65.4893 378.561 80.4805 378.561 88.0409C378.561 95.6013 374.17 102.153 366.469 102.153V102.162Z" fill="#F26A21"/>
<path d="M285.083 159.536C395.526 159.536 494.556 147.441 561.749 128.323C559.2 125.611 555.591 123.909 551.564 123.909L433.922 99.8488C433.922 99.8488 367.446 50.7017 361.967 46.2506C356.489 41.7995 342.128 31.8332 329.106 31.8332H161.842C82.316 31.8332 46.4969 85.9681 25.2714 125.426C24.0809 127.638 22.974 129.813 21.9137 131.96C88.5292 148.968 181.811 159.536 285.083 159.536ZM226.95 64.1105C226.95 56.4484 233.201 50.3408 240.902 50.3408H320.735C336.854 50.3408 342.128 54.394 350.192 59.9463C358.256 65.4986 378.561 80.4898 378.561 88.0502C378.561 95.6106 374.17 102.162 366.469 102.162H239.042C231.34 102.162 225.09 95.7124 225.09 88.0502L226.95 64.1013V64.1105ZM75.5726 89.4475C84.0925 71.9948 118.898 49.545 191.141 49.545C190.443 56.7167 187.699 82.4979 186.508 89.4753C185.327 96.4527 182.304 100.33 172.305 100.33H82.316C72.3171 100.33 73.2752 94.1577 75.5726 89.4568V89.4475Z" fill="#F58C55"/>
<path d="M26.5085 120.67H56.2725C56.2725 120.67 66.5039 149.819 14.4169 149.819C18.6025 137.79 26.5085 120.67 26.5085 120.67Z" fill="#FBD4BF"/>
<path d="M539.472 119.745C539.472 119.745 528.776 169.715 571.561 166.939C567.841 143.804 570.166 121.133 539.472 119.745Z" fill="white"/>
<path d="M18.6025 239.119H27.9782L28.1084 235.084C28.1828 232.725 28.22 230.605 28.22 228.625C28.22 193.498 56.9422 164.931 92.2404 164.931C127.539 164.931 156.261 193.507 156.261 228.625C156.261 230.578 156.298 232.688 156.372 235.075L156.493 239.11H411.273L411.394 235.075C411.478 232.475 411.515 230.161 411.515 228.005C411.515 193.747 441.818 163.691 476.372 163.691C510.927 163.691 541.23 193.747 541.23 228.005C541.23 230.152 541.267 232.391 541.342 235.066L541.463 239.11H568.297C578.295 239.11 587.987 230.319 586.434 221.065C584.881 211.811 569.682 137.345 569.682 137.345C567.515 128.221 561.553 121.827 552.001 119.745L435.67 95.9529C428.332 90.4932 369.641 46.8799 364.609 42.7897C360.107 39.1344 344.22 27.2063 329.097 27.2063H161.832C158.121 27.2063 154.503 27.3173 150.968 27.5486L134.71 1.9433C133.473 -3.28291e-08 130.887 -0.582991 128.934 0.647768C126.981 1.87853 126.395 4.45109 127.632 6.3944L141.621 28.4278C76.6329 36.4046 43.4554 82.5534 21.5696 123.242C0.465088 162.488 0.465088 192.276 0.465088 221.074C0.465088 230.689 8.93852 239.119 18.6025 239.119ZM28.9548 127.157C29.1222 126.842 29.2896 126.528 29.4664 126.222H49.6501C50.0314 126.861 50.2267 127.86 50.2267 129.304C50.2267 132.367 50.2267 141.704 30.3035 144.258C28.0154 144.554 26.3876 146.636 26.6853 148.922C26.955 151.022 28.7595 152.559 30.8336 152.559C31.0104 152.559 31.1964 152.549 31.3731 152.522C55.0541 149.486 58.5978 136.679 58.5978 129.313C58.5978 128.193 58.5141 127.175 58.356 126.231H104.639C106.955 126.231 108.825 124.371 108.825 122.067C108.825 119.763 106.955 117.903 104.639 117.903H34.117C57.2585 77.7322 93.0682 35.544 161.842 35.544H206.46C205.074 53.5241 197.772 148.441 197.196 158.065C196.163 175.156 199.298 187.297 206.767 195.2C214.124 202.973 225.741 206.749 242.297 206.749H331.589C333.905 206.749 335.775 204.889 335.775 202.585C335.775 200.281 333.905 198.421 331.589 198.421H242.297C228.178 198.421 218.551 195.496 212.859 189.491C207.055 183.355 204.665 173.241 205.548 158.564C206.125 149.024 213.64 51.3402 214.859 35.544H329.115C341.793 35.544 356.507 46.9632 359.335 49.2581C364.823 53.7092 428.713 101.181 431.429 103.199L432.173 103.754L534.877 124.76C534.849 125.556 534.821 126.361 534.821 127.157C534.821 145.905 542.021 162.081 552.736 167.411C553.34 167.707 553.973 167.855 554.605 167.855C556.14 167.855 557.619 167.013 558.354 165.551C559.386 163.497 558.549 160.989 556.484 159.962C549.88 156.677 543.193 144.35 543.193 127.148C543.193 126.916 543.202 126.685 543.211 126.454L551.564 128.073C556.912 129.23 560.242 132.552 561.33 137.79L573.431 198.402H559.47C557.154 198.402 555.284 200.262 555.284 202.566C555.284 204.87 557.154 206.731 559.47 206.731H574.352C574.603 206.731 574.854 206.703 575.086 206.657C575.086 206.657 577.7 217.197 578.063 221.453C578.416 225.701 573.561 230.79 568.306 230.79H549.629C549.61 229.828 549.61 228.912 549.61 228.014C549.61 208.914 541.565 190.657 526.953 176.6C512.926 163.108 494.501 155.372 476.372 155.372C458.244 155.372 439.819 163.108 425.792 176.6C411.18 190.657 403.134 208.914 403.134 228.014C403.134 228.903 403.134 229.828 403.116 230.79H164.651C164.641 230.041 164.632 229.328 164.632 228.634C164.632 188.917 132.152 156.612 92.2404 156.612C52.3288 156.612 19.8396 188.917 19.8396 228.634C19.8396 229.338 19.8396 230.05 19.821 230.79H18.5932C13.0962 230.79 8.8269 225.571 8.8269 221.074C8.8269 216.262 8.8269 211.505 8.91992 206.731H13.4775C15.7935 206.731 17.6631 204.87 17.6631 202.566C17.6631 200.262 15.7935 198.402 13.4775 198.402H9.18965C10.2035 176.979 14.0914 154.789 28.9455 127.157H28.9548Z" fill="#263544"/>
<path d="M404.325 170.742C404.037 173.028 405.664 175.101 407.962 175.388C408.138 175.406 408.315 175.425 408.483 175.425C410.566 175.425 412.361 173.879 412.631 171.779C415.793 146.599 407.311 113.619 406.948 112.23C406.371 110 404.083 108.668 401.842 109.241C399.6 109.815 398.261 112.092 398.837 114.322C398.921 114.646 407.283 147.136 404.316 170.752L404.325 170.742Z" fill="#263544"/>
<path d="M382.746 87.8188C382.746 78.3614 363.846 63.9347 352.573 56.1707L351.522 55.4397C343.662 50.0077 337.458 45.7139 320.744 45.7139H240.911C230.968 45.7139 222.867 53.7185 222.774 63.5923L220.923 87.5042V87.8281C220.914 97.776 229.043 105.873 239.051 105.873H366.478C375.91 105.873 382.755 98.2849 382.755 87.8281L382.746 87.8188ZM229.276 87.9669L231.127 64.0828V63.7589C231.136 58.4009 235.517 54.0424 240.902 54.0424H320.735C334.826 54.0424 339.57 57.3182 346.741 62.2783L347.811 63.0186C364.218 74.3175 374.375 84.691 374.375 87.8188C374.375 92.2977 372.301 97.5354 366.469 97.5354H239.042C233.703 97.5354 229.359 93.2601 229.276 87.9669Z" fill="#263544"/>
<path d="M91.6172 201.178C76.233 201.178 63.7135 213.634 63.7135 228.94C63.7135 244.246 76.233 256.701 91.6172 256.701C107.001 256.701 119.521 244.246 119.521 228.94C119.521 213.634 107.001 201.178 91.6172 201.178ZM91.6172 248.373C80.8464 248.373 72.0846 239.656 72.0846 228.94C72.0846 218.224 80.8464 209.507 91.6172 209.507C102.388 209.507 111.15 218.224 111.15 228.94C111.15 239.656 102.388 248.373 91.6172 248.373Z" fill="#263544"/>
<path d="M475.759 201.178C460.374 201.178 447.855 213.634 447.855 228.94C447.855 244.246 460.374 256.701 475.759 256.701C491.143 256.701 503.662 244.246 503.662 228.94C503.662 213.634 491.143 201.178 475.759 201.178ZM475.759 248.373C464.988 248.373 456.226 239.656 456.226 228.94C456.226 218.224 464.988 209.507 475.759 209.507C486.529 209.507 495.291 218.224 495.291 228.94C495.291 239.656 486.529 248.373 475.759 248.373Z" fill="#263544"/>
<path d="M270.201 117.894H224.625C222.309 117.894 220.439 119.754 220.439 122.058C220.439 124.362 222.309 126.222 224.625 126.222H270.201C272.517 126.222 274.387 124.362 274.387 122.058C274.387 119.754 272.517 117.894 270.201 117.894Z" fill="#263544"/>
<path d="M190.638 89.8639C191.829 82.868 194.573 57.3737 195.307 49.8134C195.419 48.6474 195.038 47.4814 194.238 46.6115C193.447 45.7417 192.322 45.2512 191.141 45.2512C118.237 45.2512 81.2928 67.9509 71.8056 87.3932C69.4431 92.2329 69.2384 96.2583 71.1917 99.3584C73.1357 102.449 76.8841 104.022 82.316 104.022H172.305C183.476 104.022 188.955 99.7933 190.638 89.8732V89.8639ZM78.2885 94.935C78.2885 94.935 77.9258 93.9079 79.3303 91.0207C85.9714 77.4083 115.996 54.5698 186.499 53.6074C185.439 63.8237 183.355 82.72 182.379 88.4759C181.551 93.3804 180.286 95.6846 172.296 95.6846H82.3067C79.0512 95.6846 78.2885 94.935 78.2792 94.935H78.2885Z" fill="#263544"/>
<path d="M166.957 271.507H126.674C139.044 261.402 146.96 246.069 146.96 228.94C146.96 198.578 122.135 173.879 91.6172 173.879C61.0999 173.879 36.2748 198.578 36.2748 228.94C36.2748 246.069 44.1809 261.402 56.5609 271.507H4.18556C1.86955 271.507 0 273.367 0 275.672C0 277.976 1.86955 279.836 4.18556 279.836H70.2244C70.3081 279.836 70.3825 279.817 70.4662 279.808C76.9864 282.501 84.1297 284 91.6172 284C99.1047 284 106.248 282.501 112.768 279.808C112.852 279.808 112.926 279.836 113.01 279.836H166.957C169.273 279.836 171.143 277.976 171.143 275.672C171.143 273.367 169.273 271.507 166.957 271.507ZM44.646 228.94C44.646 203.168 65.7133 182.208 91.6172 182.208C117.521 182.208 138.589 203.168 138.589 228.94C138.589 254.712 117.521 275.672 91.6172 275.672C65.7133 275.672 44.646 254.712 44.646 228.94Z" fill="#263544"/>
<path d="M594.814 271.507H510.815C523.186 261.402 531.101 246.069 531.101 228.94C531.101 198.578 506.276 173.879 475.759 173.879C445.241 173.879 420.416 198.578 420.416 228.94C420.416 246.069 428.322 261.402 440.702 271.507H400.418C398.102 271.507 396.233 273.367 396.233 275.672C396.233 277.976 398.102 279.836 400.418 279.836H454.366C454.449 279.836 454.524 279.817 454.607 279.808C461.128 282.501 468.271 284 475.759 284C483.246 284 490.389 282.501 496.91 279.808C496.993 279.808 497.068 279.836 497.151 279.836H594.814C597.13 279.836 599 277.976 599 275.672C599 273.367 597.13 271.507 594.814 271.507ZM428.787 228.94C428.787 203.168 449.855 182.208 475.759 182.208C501.662 182.208 522.73 203.168 522.73 228.94C522.73 254.712 501.662 275.672 475.759 275.672C449.855 275.672 428.787 254.712 428.787 228.94Z" fill="#263544"/>
<path d="M97.57 228.875L101.839 224.627C103.476 222.999 103.476 220.361 101.839 218.742C100.202 217.113 97.5514 217.113 95.9237 218.742L91.6544 222.989L87.2735 218.622C85.6365 216.993 82.9857 216.993 81.358 218.622C79.7209 220.25 79.7209 222.888 81.358 224.507L85.7481 228.875L81.4696 233.132C79.8325 234.76 79.8325 237.398 81.4696 239.017C82.2881 239.831 83.3577 240.239 84.4274 240.239C85.497 240.239 86.5666 239.831 87.3852 239.017L91.6637 234.76L96.0167 239.1C96.8352 239.915 97.9049 240.322 98.9745 240.322C100.044 240.322 101.114 239.915 101.932 239.1C103.569 237.472 103.569 234.834 101.932 233.215L97.5793 228.875H97.57Z" fill="#263544"/>
<path d="M481.711 228.875L485.981 224.627C487.618 222.999 487.618 220.361 485.981 218.742C484.344 217.113 481.693 217.113 480.065 218.742L475.796 222.989L471.415 218.622C469.778 216.993 467.136 216.993 465.499 218.622C463.862 220.25 463.862 222.888 465.499 224.507L469.889 228.875L465.611 233.132C463.974 234.76 463.974 237.398 465.611 239.017C466.429 239.831 467.499 240.239 468.569 240.239C469.638 240.239 470.708 239.831 471.526 239.017L475.805 234.76L480.158 239.1C480.977 239.915 482.046 240.322 483.116 240.322C484.185 240.322 485.255 239.915 486.074 239.1C487.711 237.472 487.711 234.834 486.074 233.215L481.721 228.875H481.711Z" fill="#263544"/>
</g>
<defs>
<clipPath id="clip0_54_621">
<rect width="599" height="284" fill="white"/>
</clipPath>
</defs>
</svg>
